<svg xmlns="http://www.w3.org/2000/svg" width="1200" height="250" viewBox="0 0 1200 250" role="img" aria-labelledby="title desc">
  <title id="title">Dhruv Shah — Data Analyst</title>
  <desc id="desc">Dark blue banner with an ascending data line and the words Data Analyst</desc>
  <rect width="1200" height="250" rx="24" fill="#101b2c"/>
  <path d="M0 204H1200M0 152H1200M0 100H1200M0 48H1200M120 0V250M240 0V250M360 0V250M480 0V250M600 0V250M720 0V250M840 0V250M960 0V250M1080 0V250" stroke="#25364a" stroke-width="1"/>
  <path d="M58 179L156 157L228 169L330 111L417 125" fill="none" stroke="#55c5bd" stroke-width="5" stroke-linecap="round" stroke-linejoin="round"/>
  <circle cx="58" cy="179" r="6" fill="#55c5bd"/><circle cx="156" cy="157" r="6" fill="#55c5bd"/><circle cx="228" cy="169" r="6" fill="#55c5bd"/><circle cx="330" cy="111" r="6" fill="#55c5bd"/><circle cx="417" cy="125" r="6" fill="#55c5bd"/>
  <text x="752" y="116" fill="#ffffff" font-family="Arial, Helvetica, sans-serif" font-size="74" font-weight="700" letter-spacing="2" text-anchor="middle">DHRUV SHAH</text>
  <text x="752" y="168" fill="#78d6cc" font-family="Arial, Helvetica, sans-serif" font-size="29" font-weight="700" letter-spacing="7" text-anchor="middle">DATA ANALYST</text>
</svg>
